<?xml version="1.0" encoding="iso-8859-1"?>
<!-- Uploaded to: SVG Repo, www.svgrepo.com, Generator: SVG Repo Mixer Tools -->
<svg height="800px" width="800px" version="1.1" id="Layer_1" xmlns="http://www.w3.org/2000/svg"
	xmlns:xlink="http://www.w3.org/1999/xlink"
	viewBox="0 0 512 512" xml:space="preserve">
<path style="fill:#4987F3;" d="M290.24,80.519l-19.797-19.797c-4.966-4.967-11.702-7.756-18.726-7.756h-68.479v35.31h125.727
	C301.942,88.276,295.206,85.485,290.24,80.519z"/>
<path style="fill:#FFFFFF;" d="M228.447,80.519L208.65,60.722c-4.966-4.967-11.702-7.756-18.726-7.756h-68.479v35.31h125.727
	C240.149,88.276,233.412,85.485,228.447,80.519z"/>
<path style="fill:#4987F3;" d="M485.517,88.276H178.694c-7.023,0-13.76-2.791-18.727-7.756L140.17,60.723
	c-4.966-4.967-11.702-7.757-18.726-7.757H26.483C11.857,52.966,0,64.822,0,79.448v353.103c0,14.626,11.857,26.483,26.483,26.483
	h459.034c14.626,0,26.483-11.857,26.483-26.483V114.759C512,100.132,500.143,88.276,485.517,88.276z"/>
<circle style="fill:#FF6E6E;" cx="414.897" cy="185.379" r="44.138"/>
<g>
	<circle style="fill:#FFFFFF;" cx="414.897" cy="185.379" r="26.483"/>
	<path style="fill:#FFFFFF;" d="M335.448,158.897h-70.621c-4.875,0-8.828-3.953-8.828-8.828l0,0c0-4.875,3.953-8.828,8.828-8.828
		h70.621c4.875,0,8.828,3.953,8.828,8.828l0,0C344.276,154.944,340.323,158.897,335.448,158.897z"/>
	<path style="fill:#4987F3;" d="M335.448,194.207H211.862c-4.875,0-8.828-3.953-8.828-8.828l0,0c0-4.875,3.953-8.828,8.828-8.828
		h123.586c4.875,0,8.828,3.953,8.828,8.828l0,0C344.276,190.254,340.323,194.207,335.448,194.207z"/>
	<path style="fill:#4987F3;" d="M335.448,229.517H211.862c-4.875,0-8.828-3.953-8.828-8.828l0,0c0-4.875,3.953-8.828,8.828-8.828
		h123.586c4.875,0,8.828,3.953,8.828,8.828l0,0C344.276,225.565,340.323,229.517,335.448,229.517z"/>
</g>
</svg>