<?xml version="1.0" encoding="iso-8859-1"?>
<!-- Uploaded to: SVG Repo, www.svgrepo.com, Generator: SVG Repo Mixer Tools -->
<!DOCTYPE svg PUBLIC "-//W3C//DTD SVG 1.1//EN" "http://www.w3.org/Graphics/SVG/1.1/DTD/svg11.dtd">
<svg fill="#000000" height="800px" width="800px" version="1.1" id="Capa_1" xmlns="http://www.w3.org/2000/svg" xmlns:xlink="http://www.w3.org/1999/xlink" 
	 viewBox="0 0 297.693 297.693" xml:space="preserve">
<path d="M252.889,140.562c1.489-5.625,2.242-11.407,2.236-17.195c-0.01-17.794-6.976-34.381-19.615-46.706
	c-12.563-12.249-29.356-18.995-47.33-18.995c-29.331,0.018-54.772,18.045-63.57,44.945c-7.318-7.073-16.917-10.959-27.146-10.959
	c-10.434,0.006-20.239,4.074-27.613,11.457c-7.373,7.382-11.431,17.193-11.424,27.627c0.002,3.62,0.501,7.207,1.486,10.677
	c-3.293-0.668-6.642-1.007-9.99-1.007c-13.342,0.008-25.883,5.211-35.312,14.651C5.181,164.497-0.008,176.884,0,190.225
	c0.018,27.524,22.425,49.759,49.949,49.759c0.001,0,0.029,0,0.029,0l197.793,0.044c13.343-0.008,25.883-5.132,35.312-14.571
	c9.43-9.439,14.618-21.945,14.61-35.286C297.678,164.372,278.459,143.171,252.889,140.562z M219.222,183.772
	c-1.417,1.221-3.153,1.819-4.889,1.819c-2.105,0-4.355-0.882-5.837-2.602l-2.982-3.293v29.19c0,4.143-3.357,7.5-7.5,7.5
	c-4.143,0-7.5-3.357-7.5-7.5v-28.74l-2.309,2.843c-1.482,1.721-3.517,2.602-5.623,2.602c-1.735,0-3.437-0.599-4.853-1.82
	c-3.138-2.705-3.466-7.44-0.761-10.577l15.837-18.354c2.706-3.14,7.448-3.487,10.582-0.782c0.216,0.186,0.723,0.71,0.786,0.782
	l15.826,18.354C222.702,176.331,222.358,181.067,219.222,183.772z"/>
</svg>