<?xml version="1.0" encoding="utf-8"?><!-- Uploaded to: SVG Repo, www.svgrepo.com, Generator: SVG Repo Mixer Tools -->
<svg width="800px" height="800px" viewBox="0 0 48 48" xmlns="http://www.w3.org/2000/svg"><title>70 Basic icons by Xicons.co</title><path d="M17.5,48a9,9,0,0,1-9-9,2.5,2.5,0,0,1,5,0,4,4,0,0,0,8,0V25a2.5,2.5,0,0,1,5,0V39A9,9,0,0,1,17.5,48Z" fill="#4d4d4d"/><path d="M24,0C11.85,0,2,9.4,2,21v2a2,2,0,0,0,2,2H44a2,2,0,0,0,2-2V21C46,9.4,36.15,0,24,0Z" fill="#38b1e7"/><path d="M24.5,0A20.8,20.8,0,0,0,14,17.9V25H35V17.9A20.8,20.8,0,0,0,24.5,0Z" fill="#aedff5"/></svg>